mtllib model_0.mtl
o model_0
v 0.7490233778953552 -17.500036239624023 -99.99952697753906 
v -59.16017532348633 -17.500032424926758 -81.1019287109375 
v 0.7490233778953552 453.6807861328125 -99.99960327148438 
v -59.16017532348633 453.6807861328125 -81.10200500488281 
v 0.7490233778953552 917.4993896484375 -99.99967956542969 
v -59.16017532348633 917.4993896484375 -81.10208129882812 
v -59.16017532348633 -17.500032424926758 -81.1019287109375 
v -95.10569763183594 -17.500024795532227 -30.708324432373047 
v -59.16017532348633 453.6807861328125 -81.10200500488281 
v -95.10569763183594 453.6807861328125 -30.708402633666992 
v -59.16017532348633 917.4993896484375 -81.10208129882812 
v -95.10569763183594 917.4993896484375 -30.708477020263672 
v -95.10569763183594 -17.500024795532227 -30.708324432373047 
v -95.10569763183594 -17.50001335144043 30.708873748779297 
v -95.10569763183594 453.6807861328125 -30.708402633666992 
v -95.10569763183594 453.6808166503906 30.70879554748535 
v -95.10569763183594 917.4993896484375 -30.708477020263672 
v -95.10569763183594 917.4993896484375 30.708721160888672 
v -95.10569763183594 -17.50001335144043 30.708873748779297 
v -59.16017532348633 -17.5000057220459 81.10247802734375 
v -95.10569763183594 453.6808166503906 30.70879554748535 
v -59.16017532348633 453.6808166503906 81.10240173339844 
v -95.10569763183594 917.4993896484375 30.708721160888672 
v -59.16017532348633 917.4993896484375 81.10232543945312 
v -59.16017532348633 -17.5000057220459 81.10247802734375 
v -0.7487066388130188 -17.500001907348633 100.00007629394531 
v -59.16017532348633 453.6808166503906 81.10240173339844 
v -0.7487066388130188 453.6808166503906 100 
v -59.16017532348633 917.4993896484375 81.10232543945312 
v -0.7487066388130188 917.4993896484375 99.99992370605469 
v -0.7487066388130188 -17.500001907348633 100.00007629394531 
v 59.160491943359375 -17.5000057220459 81.10247802734375 
v -0.7487066388130188 453.6808166503906 100 
v 59.160491943359375 453.6808166503906 81.10240173339844 
v -0.7487066388130188 917.4993896484375 99.99992370605469 
v 59.160491943359375 917.4993896484375 81.10232543945312 
v 59.160491943359375 -17.5000057220459 81.10247802734375 
v 95.10601806640625 -17.50001335144043 30.708873748779297 
v 59.160491943359375 453.6808166503906 81.10240173339844 
v 95.10601806640625 453.6808166503906 30.70879554748535 
v 59.160491943359375 917.4993896484375 81.10232543945312 
v 95.10601806640625 917.4993896484375 30.708721160888672 
v 95.10601806640625 453.6807861328125 -30.708402633666992 
v 95.10601806640625 453.6808166503906 30.70879554748535 
v 95.10601806640625 -17.500024795532227 -30.708324432373047 
v 95.10601806640625 -17.50001335144043 30.708873748779297 
v 95.10601806640625 -17.500024795532227 -30.708324432373047 
v 59.160491943359375 -17.500032424926758 -81.1019287109375 
v 95.10601806640625 453.6807861328125 -30.708402633666992 
v 59.160491943359375 453.6807861328125 -81.10200500488281 
v 95.10601806640625 917.4993896484375 -30.708477020263672 
v 59.160491943359375 917.4993896484375 -81.10208129882812 
v 59.160491943359375 -17.500032424926758 -81.1019287109375 
v 0.7490233778953552 -17.500036239624023 -99.99952697753906 
v 59.160491943359375 453.6807861328125 -81.10200500488281 
v 0.7490233778953552 453.6807861328125 -99.99960327148438 
v 59.160491943359375 917.4993896484375 -81.10208129882812 
v 0.7490233778953552 917.4993896484375 -99.99967956542969 
v 95.10601806640625 917.4993896484375 -30.708477020263672 
v 95.10601806640625 917.4993896484375 30.708721160888672 
v 95.10601806640625 453.6807861328125 -30.708402633666992 
v 95.10601806640625 453.6808166503906 30.70879554748535 
vn -0.003118877299129963 0.00002184539334848523 -0.00950116477906704 
vn -0.003118877299129963 0.00002184539334848523 -0.00950116477906704 
vn -0.003118877299129963 0.00002184539334848523 -0.00950116477906704 
vn -0.003118877299129963 0.00002184539334848523 -0.00950116477906704 
vn -0.003118877299129963 0.00002184539334848523 -0.00950116477906704 
vn -0.003118877299129963 0.00002184539334848523 -0.00950116477906704 
vn -0.008099018596112728 0.000021845986339030787 -0.005865612532943487 
vn -0.008099018596112728 0.000021845986339030787 -0.005865612532943487 
vn -0.008099018596112728 0.000021845986339030787 -0.005865612532943487 
vn -0.008099018596112728 0.000021845986339030787 -0.005865612532943487 
vn -0.008099018596112728 0.000021845986339030787 -0.005865612532943487 
vn -0.008099018596112728 0.000021845986339030787 -0.005865612532943487 
vn -0.009999976493418217 0.00002184694130846765 -3.557257353264953e-12 
vn -0.009999976493418217 0.00002184694130846765 -3.557257353264953e-12 
vn -0.009999976493418217 0.00002184694130846765 -3.557257353264953e-12 
vn -0.009999976493418217 0.00002184694130846765 -3.557257353264953e-12 
vn -0.009999976493418217 0.00002184694130846765 -3.557257353264953e-12 
vn -0.009999976493418217 0.00002184694130846765 -3.557257353264953e-12 
vn -0.008099018596112728 0.000021847898096893914 0.005865612532943487 
vn -0.008099018596112728 0.000021847898096893914 0.005865612532943487 
vn -0.008099018596112728 0.000021847898096893914 0.005865612532943487 
vn -0.008099018596112728 0.000021847898096893914 0.005865612532943487 
vn -0.008099018596112728 0.000021847898096893914 0.005865612532943487 
vn -0.008099018596112728 0.000021847898096893914 0.005865612532943487 
vn -0.003118877299129963 0.000021848489268450066 0.00950116477906704 
vn -0.003118877299129963 0.000021848489268450066 0.00950116477906704 
vn -0.003118877299129963 0.000021848489268450066 0.00950116477906704 
vn -0.003118877299129963 0.000021848489268450066 0.00950116477906704 
vn -0.003118877299129963 0.000021848489268450066 0.00950116477906704 
vn -0.003118877299129963 0.000021848489268450066 0.00950116477906704 
vn 0.003118877299129963 0.000021848489268450066 0.00950116477906704 
vn 0.003118877299129963 0.000021848489268450066 0.00950116477906704 
vn 0.003118877299129963 0.000021848489268450066 0.00950116477906704 
vn 0.003118877299129963 0.000021848489268450066 0.00950116477906704 
vn 0.003118877299129963 0.000021848489268450066 0.00950116477906704 
vn 0.003118877299129963 0.000021848489268450066 0.00950116477906704 
vn 0.008099018596112728 0.000021847898096893914 0.005865612532943487 
vn 0.008099018596112728 0.000021847898096893914 0.005865612532943487 
vn 0.008099018596112728 0.000021847898096893914 0.005865612532943487 
vn 0.008099018596112728 0.000021847898096893914 0.005865612532943487 
vn 0.008099018596112728 0.000021847898096893914 0.005865612532943487 
vn 0.008099018596112728 0.000021847898096893914 0.005865612532943487 
vn 0.009999976493418217 0.00002184694130846765 -3.5593255773291865e-12 
vn 0.009999976493418217 0.00002184694130846765 -3.5593255773291865e-12 
vn 0.009999976493418217 0.00002184694130846765 -3.5593255773291865e-12 
vn 0.009999976493418217 0.00002184694130846765 -3.5593255773291865e-12 
vn 0.008099018596112728 0.000021845986339030787 -0.005865612532943487 
vn 0.008099018596112728 0.000021845986339030787 -0.005865612532943487 
vn 0.008099018596112728 0.000021845986339030787 -0.005865612532943487 
vn 0.008099018596112728 0.000021845986339030787 -0.005865612532943487 
vn 0.008099018596112728 0.000021845986339030787 -0.005865612532943487 
vn 0.008099018596112728 0.000021845986339030787 -0.005865612532943487 
vn 0.003118877299129963 0.00002184539334848523 -0.00950116477906704 
vn 0.003118877299129963 0.00002184539334848523 -0.00950116477906704 
vn 0.003118877299129963 0.00002184539334848523 -0.00950116477906704 
vn 0.003118877299129963 0.00002184539334848523 -0.00950116477906704 
vn 0.003118877299129963 0.00002184539334848523 -0.00950116477906704 
vn 0.003118877299129963 0.00002184539334848523 -0.00950116477906704 
vn 0.009999976493418217 0.00002184694130846765 -3.5593255773291865e-12 
vn 0.009999976493418217 0.00002184694130846765 -3.5593255773291865e-12 
vn 0.009999976493418217 0.00002184694130846765 -3.5593255773291865e-12 
vn 0.009999976493418217 0.00002184694130846765 -3.5593255773291865e-12 
s on 
f 1//1 2//2 3//3 
f 2//2 4//4 3//3 
f 3//3 4//4 5//5 
f 4//4 6//6 5//5 
f 5//5 6//6 6//6 
f 6//6 7//7 6//6 
f 6//6 7//7 7//7 
f 7//7 8//8 7//7 
f 7//7 8//8 9//9 
f 8//8 10//10 9//9 
f 9//9 10//10 11//11 
f 10//10 12//12 11//11 
f 11//11 12//12 12//12 
f 12//12 13//13 12//12 
f 12//12 13//13 13//13 
f 13//13 14//14 13//13 
f 13//13 14//14 15//15 
f 14//14 16//16 15//15 
f 15//15 16//16 17//17 
f 16//16 18//18 17//17 
f 17//17 18//18 18//18 
f 18//18 19//19 18//18 
f 18//18 19//19 19//19 
f 19//19 20//20 19//19 
f 19//19 20//20 21//21 
f 20//20 22//22 21//21 
f 21//21 22//22 23//23 
f 22//22 24//24 23//23 
f 23//23 24//24 24//24 
f 24//24 25//25 24//24 
f 24//24 25//25 25//25 
f 25//25 26//26 25//25 
f 25//25 26//26 27//27 
f 26//26 28//28 27//27 
f 27//27 28//28 29//29 
f 28//28 30//30 29//29 
f 29//29 30//30 30//30 
f 30//30 31//31 30//30 
f 30//30 31//31 31//31 
f 31//31 32//32 31//31 
f 31//31 32//32 33//33 
f 32//32 34//34 33//33 
f 33//33 34//34 35//35 
f 34//34 36//36 35//35 
f 35//35 36//36 36//36 
f 36//36 37//37 36//36 
f 36//36 37//37 37//37 
f 37//37 38//38 37//37 
f 37//37 38//38 39//39 
f 38//38 40//40 39//39 
f 39//39 40//40 41//41 
f 40//40 42//42 41//41 
f 41//41 42//42 42//42 
f 42//42 43//43 42//42 
f 42//42 43//43 43//43 
f 43//43 44//44 43//43 
f 43//43 44//44 45//45 
f 44//44 46//46 45//45 
f 45//45 46//46 46//46 
f 46//46 47//47 46//46 
f 46//46 47//47 47//47 
f 47//47 48//48 47//47 
f 47//47 48//48 49//49 
f 48//48 50//50 49//49 
f 49//49 50//50 51//51 
f 50//50 52//52 51//51 
f 51//51 52//52 52//52 
f 52//52 53//53 52//52 
f 52//52 53//53 53//53 
f 53//53 54//54 53//53 
f 53//53 54//54 55//55 
f 54//54 56//56 55//55 
f 55//55 56//56 57//57 
f 56//56 58//58 57//57 
f 57//57 58//58 58//58 
f 58//58 59//59 58//58 
f 58//58 59//59 59//59 
f 59//59 60//60 59//59 
f 59//59 60//60 61//61 
f 60//60 62//62 61//61 

