mtllib model_2.mtl
o model_2
v -243.3070831298828 1000.0000610351562 444.88189697265625 
v -243.3070831298828 1055.1181640625 500 
v -300 1055.1181640625 444.8818664550781 
v -243.3070831298828 1444.8822021484375 499.99993896484375 
v -300 1444.8822021484375 444.8818054199219 
v -243.3070831298828 1500.0003662109375 444.8818054199219 
v -243.3070831298828 999.9999389648438 -444.88238525390625 
v -300 1055.1180419921875 -444.88238525390625 
v -243.3070831298828 1055.1180419921875 -500.0005187988281 
v -243.3070831298828 1500.000244140625 -444.8824462890625 
v -300 1444.882080078125 -444.8824462890625 
v -243.3070831298828 1444.882080078125 -500.0005798339844 
v 243.30715942382812 1000.0000610351562 444.88189697265625 
v 300.00006103515625 1055.1181640625 444.8818664550781 
v 243.30715942382812 1055.1181640625 500 
v 243.30715942382812 1500.0003662109375 444.8818054199219 
v 300.00006103515625 1444.8822021484375 444.8818054199219 
v 243.30715942382812 1444.8822021484375 499.99993896484375 
v 243.30715942382812 999.9999389648438 -444.88238525390625 
v 243.30715942382812 1055.1180419921875 -500.0005187988281 
v 300.00006103515625 1055.1180419921875 -444.88238525390625 
v 243.30715942382812 1500.000244140625 -444.8824462890625 
v 243.30715942382812 1444.882080078125 -500.0005798339844 
v 300.00006103515625 1444.882080078125 -444.8824462890625 
v 243.30715942382812 1444.8822021484375 499.99993896484375 
v -243.3070831298828 1444.8822021484375 499.99993896484375 
v 243.30715942382812 1055.1181640625 500 
v -243.3070831298828 1055.1181640625 500 
v 300.00006103515625 1444.882080078125 -444.8824462890625 
v 300.00006103515625 1444.8822021484375 444.8818054199219 
v 300.00006103515625 1055.1180419921875 -444.88238525390625 
v 300.00006103515625 1055.1181640625 444.8818664550781 
v -243.3070831298828 1500.000244140625 -444.8824462890625 
v -243.3070831298828 1500.0003662109375 444.8818054199219 
v 243.30715942382812 1500.000244140625 -444.8824462890625 
v 243.30715942382812 1500.0003662109375 444.8818054199219 
v -300 1444.8822021484375 444.8818054199219 
v -300 1444.882080078125 -444.8824462890625 
v -300 1055.1181640625 444.8818664550781 
v -300 1055.1180419921875 -444.88238525390625 
v -243.3070831298828 1444.882080078125 -500.0005798339844 
v 243.30715942382812 1444.882080078125 -500.0005798339844 
v -243.3070831298828 1055.1180419921875 -500.0005187988281 
v 243.30715942382812 1055.1180419921875 -500.0005187988281 
v -243.3070831298828 1000.0000610351562 444.88189697265625 
v -300 1055.1181640625 444.8818664550781 
v -243.3070831298828 999.9999389648438 -444.88238525390625 
v -300 1055.1180419921875 -444.88238525390625 
v -243.3070831298828 1444.8822021484375 499.99993896484375 
v -300 1444.8822021484375 444.8818054199219 
v -243.3070831298828 1055.1181640625 500 
v -300 1055.1181640625 444.8818664550781 
v -243.3070831298828 1500.000244140625 -444.8824462890625 
v -300 1444.882080078125 -444.8824462890625 
v -243.3070831298828 1500.0003662109375 444.8818054199219 
v -300 1444.8822021484375 444.8818054199219 
v -243.3070831298828 1055.1180419921875 -500.0005187988281 
v -300 1055.1180419921875 -444.88238525390625 
v -243.3070831298828 1444.882080078125 -500.0005798339844 
v -300 1444.882080078125 -444.8824462890625 
v -243.3070831298828 999.9999389648438 -444.88238525390625 
v -243.3070831298828 1055.1180419921875 -500.0005187988281 
v 243.30715942382812 999.9999389648438 -444.88238525390625 
v 243.30715942382812 1055.1180419921875 -500.0005187988281 
v 243.30715942382812 1500.000244140625 -444.8824462890625 
v 243.30715942382812 1444.882080078125 -500.0005798339844 
v -243.3070831298828 1500.000244140625 -444.8824462890625 
v -243.3070831298828 1444.882080078125 -500.0005798339844 
v 300.00006103515625 1055.1180419921875 -444.88238525390625 
v 243.30715942382812 1055.1180419921875 -500.0005187988281 
v 300.00006103515625 1444.882080078125 -444.8824462890625 
v 243.30715942382812 1444.882080078125 -500.0005798339844 
v 243.30715942382812 999.9999389648438 -444.88238525390625 
v 300.00006103515625 1055.1180419921875 -444.88238525390625 
v 243.30715942382812 1000.0000610351562 444.88189697265625 
v 300.00006103515625 1055.1181640625 444.8818664550781 
v 243.30715942382812 1500.0003662109375 444.8818054199219 
v 300.00006103515625 1444.8822021484375 444.8818054199219 
v 243.30715942382812 1500.000244140625 -444.8824462890625 
v 300.00006103515625 1444.882080078125 -444.8824462890625 
v 243.30715942382812 1055.1181640625 500 
v 300.00006103515625 1055.1181640625 444.8818664550781 
v 243.30715942382812 1444.8822021484375 499.99993896484375 
v 300.00006103515625 1444.8822021484375 444.8818054199219 
v 243.30715942382812 1000.0000610351562 444.88189697265625 
v 243.30715942382812 1055.1181640625 500 
v -243.3070831298828 1000.0000610351562 444.88189697265625 
v -243.3070831298828 1055.1181640625 500 
v -243.3070831298828 1500.0003662109375 444.8818054199219 
v -243.3070831298828 1444.8822021484375 499.99993896484375 
v 243.30715942382812 1500.0003662109375 444.8818054199219 
v 243.30715942382812 1444.8822021484375 499.99993896484375 
v 243.30715942382812 999.9999389648438 -444.88238525390625 
v 243.30715942382812 1000.0000610351562 444.88189697265625 
v -243.3070831298828 999.9999389648438 -444.88238525390625 
v -243.3070831298828 1000.0000610351562 444.88189697265625 
vn -0.005779946222901344 -0.00576059240847826 0.005779947154223919 
vn -0.005779946222901344 -0.00576059240847826 0.005779947154223919 
vn -0.005779946222901344 -0.00576059240847826 0.005779947154223919 
vn -0.005759913939982653 0.005760594271123409 0.005799909122288227 
vn -0.005759913939982653 0.005760594271123409 0.005799909122288227 
vn -0.005759913939982653 0.005760594271123409 0.005799909122288227 
vn -0.005779946222901344 -0.005760594271123409 -0.00577994529157877 
vn -0.005779946222901344 -0.005760594271123409 -0.00577994529157877 
vn -0.005779946222901344 -0.005760594271123409 -0.00577994529157877 
vn -0.005759913939982653 0.00576059240847826 -0.005799910984933376 
vn -0.005759913939982653 0.00576059240847826 -0.005799910984933376 
vn -0.005759913939982653 0.00576059240847826 -0.005799910984933376 
vn 0.005779946222901344 -0.00576059240847826 0.005779947154223919 
vn 0.005779946222901344 -0.00576059240847826 0.005779947154223919 
vn 0.005779946222901344 -0.00576059240847826 0.005779947154223919 
vn 0.005786608438938856 0.005760594271123409 0.005773275624960661 
vn 0.005786608438938856 0.005760594271123409 0.005773275624960661 
vn 0.005786608438938856 0.005760594271123409 0.005773275624960661 
vn 0.005779946222901344 -0.005760594271123409 -0.00577994529157877 
vn 0.005779946222901344 -0.005760594271123409 -0.00577994529157877 
vn 0.005779946222901344 -0.005760594271123409 -0.00577994529157877 
vn 0.005786608438938856 0.00576059240847826 -0.00577327748760581 
vn 0.005786608438938856 0.00576059240847826 -0.00577327748760581 
vn 0.005786608438938856 0.00576059240847826 -0.00577327748760581 
vn 3.097898490739357e-15 0.000021848571122973226 0.009999976493418217 
vn 3.097898490739357e-15 0.000021848571122973226 0.009999976493418217 
vn 3.097898490739357e-15 0.000021848571122973226 0.009999976493418217 
vn 3.097898490739357e-15 0.000021848571122973226 0.009999976493418217 
vn 0.009999976493418217 0.00002184694130846765 -3.5593255773291865e-12 
vn 0.009999976493418217 0.00002184694130846765 -3.5593255773291865e-12 
vn 0.009999976493418217 0.00002184694130846765 -3.5593255773291865e-12 
vn 0.009999976493418217 0.00002184694130846765 -3.5593255773291865e-12 
vn 0 0.009999999776482582 -1.629209989140179e-9 
vn 0 0.009999999776482582 -1.629209989140179e-9 
vn 0 0.009999999776482582 -1.629209989140179e-9 
vn 0 0.009999999776482582 -1.629209989140179e-9 
vn -0.009999976493418217 0.00002184694130846765 -3.557257353264953e-12 
vn -0.009999976493418217 0.00002184694130846765 -3.557257353264953e-12 
vn -0.009999976493418217 0.00002184694130846765 -3.557257353264953e-12 
vn -0.009999976493418217 0.00002184694130846765 -3.557257353264953e-12 
vn -1.0341130909078582e-15 0.000021845313312951475 -0.009999976493418217 
vn -1.0341130909078582e-15 0.000021845313312951475 -0.009999976493418217 
vn -1.0341130909078582e-15 0.000021845313312951475 -0.009999976493418217 
vn -1.0341130909078582e-15 0.000021845313312951475 -0.009999976493418217 
vn -0.0070786867290735245 -0.007063339464366436 -0.000037755322409793735 
vn -0.0070786867290735245 -0.007063339464366436 -0.000037755322409793735 
vn -0.0070786867290735245 -0.007063339464366436 -0.000037755322409793735 
vn -0.0070786867290735245 -0.007063339464366436 -0.000037755322409793735 
vn -0.007071050815284252 0.000021848094547749497 0.007071050815284252 
vn -0.007071050815284252 0.000021848094547749497 0.007071050815284252 
vn -0.007071050815284252 0.000021848094547749497 0.007071050815284252 
vn -0.007071050815284252 0.000021848094547749497 0.007071050815284252 
vn -0.00707878777757287 0.007063339464366436 -1.1507648167707885e-9 
vn -0.00707878777757287 0.007063339464366436 -1.1507648167707885e-9 
vn -0.00707878777757287 0.007063339464366436 -1.1507648167707885e-9 
vn -0.00707878777757287 0.007063339464366436 -1.1507648167707885e-9 
vn -0.007071050815284252 0.000021845789888175204 -0.007071050815284252 
vn -0.007071050815284252 0.000021845789888175204 -0.007071050815284252 
vn -0.007071050815284252 0.000021845789888175204 -0.007071050815284252 
vn -0.007071050815284252 0.000021845789888175204 -0.007071050815284252 
vn 0.00001887830330815632 -0.007063340395689011 -0.007078761700540781 
vn 0.00001887830330815632 -0.007063340395689011 -0.007078761700540781 
vn 0.00001887830330815632 -0.007063340395689011 -0.007078761700540781 
vn 0.00001887830330815632 -0.007063340395689011 -0.007078761700540781 
vn 0.000037692476325901225 0.007063338067382574 -0.007078688591718674 
vn 0.000037692476325901225 0.007063338067382574 -0.007078688591718674 
vn 0.000037692476325901225 0.007063338067382574 -0.007078688591718674 
vn 0.000037692476325901225 0.007063338067382574 -0.007078688591718674 
vn 0.007071050815284252 0.000021845789888175204 -0.007071050815284252 
vn 0.007071050815284252 0.000021845789888175204 -0.007071050815284252 
vn 0.007071050815284252 0.000021845789888175204 -0.007071050815284252 
vn 0.007071050815284252 0.000021845789888175204 -0.007071050815284252 
vn 0.00707878777757287 -0.007063339464366436 1.1507662600607205e-9 
vn 0.00707878777757287 -0.007063339464366436 1.1507662600607205e-9 
vn 0.00707878777757287 -0.007063339464366436 1.1507662600607205e-9 
vn 0.00707878777757287 -0.007063339464366436 1.1507662600607205e-9 
vn 0.00707878777757287 0.007063339464366436 -1.1507662600607205e-9 
vn 0.00707878777757287 0.007063339464366436 -1.1507662600607205e-9 
vn 0.00707878777757287 0.007063339464366436 -1.1507662600607205e-9 
vn 0.00707878777757287 0.007063339464366436 -1.1507662600607205e-9 
vn 0.007071050815284252 0.000021848094547749497 0.007071050815284252 
vn 0.007071050815284252 0.000021848094547749497 0.007071050815284252 
vn 0.007071050815284252 0.000021848094547749497 0.007071050815284252 
vn 0.007071050815284252 0.000021848094547749497 0.007071050815284252 
vn 0.00001887830330815632 -0.007063338067382574 0.0070787640288472176 
vn 0.00001887830330815632 -0.007063338067382574 0.0070787640288472176 
vn 0.00001887830330815632 -0.007063338067382574 0.0070787640288472176 
vn 0.00001887830330815632 -0.007063338067382574 0.0070787640288472176 
vn 0.000037692476325901225 0.007063340395689011 0.007078686263412237 
vn 0.000037692476325901225 0.007063340395689011 0.007078686263412237 
vn 0.000037692476325901225 0.007063340395689011 0.007078686263412237 
vn 0.000037692476325901225 0.007063340395689011 0.007078686263412237 
vn -2.068231052255163e-15 -0.009999999776482582 1.629209989140179e-9 
vn -2.068231052255163e-15 -0.009999999776482582 1.629209989140179e-9 
vn -2.068231052255163e-15 -0.009999999776482582 1.629209989140179e-9 
vn -2.068231052255163e-15 -0.009999999776482582 1.629209989140179e-9 
s on 
f 1//1 2//2 3//3 
f 2//2 3//3 3//3 
f 3//3 3//3 4//4 
f 3//3 4//4 4//4 
f 4//4 4//4 5//5 
f 4//4 6//6 5//5 
f 5//5 6//6 6//6 
f 6//6 7//7 6//6 
f 6//6 7//7 7//7 
f 7//7 8//8 7//7 
f 7//7 8//8 9//9 
f 8//8 9//9 9//9 
f 9//9 9//9 10//10 
f 9//9 10//10 10//10 
f 10//10 10//10 11//11 
f 10//10 12//12 11//11 
f 11//11 12//12 12//12 
f 12//12 13//13 12//12 
f 12//12 13//13 13//13 
f 13//13 14//14 13//13 
f 13//13 14//14 15//15 
f 14//14 15//15 15//15 
f 15//15 15//15 16//16 
f 15//15 16//16 16//16 
f 16//16 16//16 17//17 
f 16//16 18//18 17//17 
f 17//17 18//18 18//18 
f 18//18 19//19 18//18 
f 18//18 19//19 19//19 
f 19//19 20//20 19//19 
f 19//19 20//20 21//21 
f 20//20 21//21 21//21 
f 21//21 21//21 22//22 
f 21//21 22//22 22//22 
f 22//22 22//22 23//23 
f 22//22 24//24 23//23 
f 23//23 24//24 24//24 
f 24//24 25//25 24//24 
f 24//24 25//25 25//25 
f 25//25 26//26 25//25 
f 25//25 26//26 27//27 
f 26//26 28//28 27//27 
f 27//27 28//28 28//28 
f 28//28 29//29 28//28 
f 28//28 29//29 29//29 
f 29//29 30//30 29//29 
f 29//29 30//30 31//31 
f 30//30 32//32 31//31 
f 31//31 32//32 32//32 
f 32//32 33//33 32//32 
f 32//32 33//33 33//33 
f 33//33 34//34 33//33 
f 33//33 34//34 35//35 
f 34//34 36//36 35//35 
f 35//35 36//36 36//36 
f 36//36 37//37 36//36 
f 36//36 37//37 37//37 
f 37//37 38//38 37//37 
f 37//37 38//38 39//39 
f 38//38 40//40 39//39 
f 39//39 40//40 40//40 
f 40//40 41//41 40//40 
f 40//40 41//41 41//41 
f 41//41 42//42 41//41 
f 41//41 42//42 43//43 
f 42//42 44//44 43//43 
f 43//43 44//44 44//44 
f 44//44 45//45 44//44 
f 44//44 45//45 45//45 
f 45//45 46//46 45//45 
f 45//45 46//46 47//47 
f 46//46 48//48 47//47 
f 47//47 48//48 48//48 
f 48//48 49//49 48//48 
f 48//48 49//49 49//49 
f 49//49 50//50 49//49 
f 49//49 50//50 51//51 
f 50//50 52//52 51//51 
f 51//51 52//52 52//52 
f 52//52 53//53 52//52 
f 52//52 53//53 53//53 
f 53//53 54//54 53//53 
f 53//53 54//54 55//55 
f 54//54 56//56 55//55 
f 55//55 56//56 56//56 
f 56//56 57//57 56//56 
f 56//56 57//57 57//57 
f 57//57 58//58 57//57 
f 57//57 58//58 59//59 
f 58//58 60//60 59//59 
f 59//59 60//60 60//60 
f 60//60 61//61 60//60 
f 60//60 61//61 61//61 
f 61//61 62//62 61//61 
f 61//61 62//62 63//63 
f 62//62 64//64 63//63 
f 63//63 64//64 64//64 
f 64//64 65//65 64//64 
f 64//64 65//65 65//65 
f 65//65 66//66 65//65 
f 65//65 66//66 67//67 
f 66//66 68//68 67//67 
f 67//67 68//68 68//68 
f 68//68 69//69 68//68 
f 68//68 69//69 69//69 
f 69//69 70//70 69//69 
f 69//69 70//70 71//71 
f 70//70 72//72 71//71 
f 71//71 72//72 72//72 
f 72//72 73//73 72//72 
f 72//72 73//73 73//73 
f 73//73 74//74 73//73 
f 73//73 74//74 75//75 
f 74//74 76//76 75//75 
f 75//75 76//76 76//76 
f 76//76 77//77 76//76 
f 76//76 77//77 77//77 
f 77//77 78//78 77//77 
f 77//77 78//78 79//79 
f 78//78 80//80 79//79 
f 79//79 80//80 80//80 
f 80//80 81//81 80//80 
f 80//80 81//81 81//81 
f 81//81 82//82 81//81 
f 81//81 82//82 83//83 
f 82//82 84//84 83//83 
f 83//83 84//84 84//84 
f 84//84 85//85 84//84 
f 84//84 85//85 85//85 
f 85//85 86//86 85//85 
f 85//85 86//86 87//87 
f 86//86 88//88 87//87 
f 87//87 88//88 88//88 
f 88//88 89//89 88//88 
f 88//88 89//89 89//89 
f 89//89 90//90 89//89 
f 89//89 90//90 91//91 
f 90//90 92//92 91//91 
f 91//91 92//92 92//92 
f 92//92 93//93 92//92 
f 92//92 93//93 93//93 
f 93//93 94//94 93//93 
f 93//93 94//94 95//95 
f 94//94 96//96 95//95 

