mtllib model_11.mtl
o model_11
v 0.5346620678901672 8.416629791259766 8.276679992675781 
v 0.48841404914855957 8.425836563110352 8.276679992675781 
v 0.5412689447402954 8.563941955566406 8.276679992675781 
v 0.4487728774547577 8.448854446411133 8.276679992675781 
v 0.42234542965888977 8.483380317687988 8.276679992675781 
v 0.40252485871315 8.524812698364258 8.276679992675781 
v 0.39591801166534424 8.570847511291504 8.276679992675781 
v 0.40252485871315 8.614580154418945 8.276679992675781 
v 0.42895230650901794 8.656011581420898 8.276679992675781 
v 0.46198660135269165 8.685935020446777 8.276679992675781 
v 0.5016277432441711 8.70434856414795 8.276679992675781 
v 0.5478757619857788 8.708951950073242 8.276679992675781 
v 0.5941237807273865 8.699745178222656 8.276679992675781 
v 0.6337649822235107 8.676727294921875 8.276679992675781 
v 0.6667992472648621 8.64220142364502 8.276679992675781 
v 0.6866198182106018 8.600769996643066 8.276679992675781 
v 0.6866198182106018 8.55473518371582 8.276679992675781 
v 0.6800130009651184 8.511001586914062 8.276679992675781 
v 0.6535855531692505 8.46957015991211 8.276679992675781 
v 0.6205512285232544 8.439647674560547 8.276679992675781 
v 0.5809100866317749 8.421233177185059 8.276679992675781 
v 1.201954960823059 8.46957015991211 8.276679992675781 
v 1.201954960823059 8.46957015991211 8.569402694702148 
v 1.168920636177063 8.439647674560547 8.276679992675781 
v 1.168920636177063 8.439647674560547 8.569402694702148 
v 1.1292794942855835 8.421233177185059 8.276679992675781 
v 1.1292794942855835 8.421233177185059 8.569402694702148 
v 1.083031415939331 8.416629791259766 8.276679992675781 
v 1.083031415939331 8.416629791259766 8.569402694702148 
v 1.0367834568023682 8.425836563110352 8.276679992675781 
v 1.0367834568023682 8.425836563110352 8.569402694702148 
v 0.9971422553062439 8.448854446411133 8.276679992675781 
v 0.9971422553062439 8.448854446411133 8.569402694702148 
v 0.9641079306602478 8.483380317687988 8.276679992675781 
v 0.9641079306602478 8.483380317687988 8.569402694702148 
v 0.9442873597145081 8.524812698364258 8.276679992675781 
v 0.9442873597145081 8.524812698364258 8.569402694702148 
v 0.9442873597145081 8.570847511291504 8.276679992675781 
v 0.9442873597145081 8.570847511291504 8.569402694702148 
v 0.9508942365646362 8.614580154418945 8.276679992675781 
v 0.9508942365646362 8.614580154418945 8.569402694702148 
v 0.9773216843605042 8.656011581420898 8.276679992675781 
v 0.9773216843605042 8.656011581420898 8.569402694702148 
v 1.0103559494018555 8.685935020446777 8.276679992675781 
v 1.0103559494018555 8.685935020446777 8.569402694702148 
v 1.049997091293335 8.70434856414795 8.276679992675781 
v 1.049997091293335 8.70434856414795 8.569402694702148 
v 1.0962451696395874 8.708951950073242 8.276679992675781 
v 1.0962451696395874 8.708951950073242 8.569402694702148 
v 1.1424931287765503 8.699745178222656 8.276679992675781 
v 1.1424931287765503 8.699745178222656 8.569402694702148 
v 1.1821343898773193 8.676727294921875 8.276679992675781 
v 1.1821343898773193 8.676727294921875 8.569402694702148 
v 1.2085617780685425 8.64220142364502 8.276679992675781 
v 1.2085617780685425 8.64220142364502 8.569402694702148 
v 1.2283823490142822 8.600769996643066 8.276679992675781 
v 1.2283823490142822 8.600769996643066 8.569402694702148 
v 1.2349891662597656 8.55473518371582 8.276679992675781 
v 1.2349891662597656 8.55473518371582 8.569402694702148 
v 1.2283823490142822 8.511001586914062 8.276679992675781 
v 1.2283823490142822 8.511001586914062 8.569402694702148 
v 0.6205512285232544 8.439647674560547 8.569402694702148 
v 0.6205512285232544 8.439647674560547 8.276679992675781 
v 0.6535855531692505 8.46957015991211 8.569402694702148 
v 0.6535855531692505 8.46957015991211 8.276679992675781 
v 0.6800130009651184 8.511001586914062 8.569402694702148 
v 0.6800130009651184 8.511001586914062 8.276679992675781 
v 0.6866198182106018 8.55473518371582 8.569402694702148 
v 0.6866198182106018 8.55473518371582 8.276679992675781 
v 0.6866198182106018 8.600769996643066 8.569402694702148 
v 0.6866198182106018 8.600769996643066 8.276679992675781 
v 0.6667992472648621 8.64220142364502 8.569402694702148 
v 0.6667992472648621 8.64220142364502 8.276679992675781 
v 0.6337649822235107 8.676727294921875 8.569402694702148 
v 0.6337649822235107 8.676727294921875 8.276679992675781 
v 0.5941237807273865 8.699745178222656 8.569402694702148 
v 0.5941237807273865 8.699745178222656 8.276679992675781 
v 0.5478757619857788 8.708951950073242 8.569402694702148 
v 0.5478757619857788 8.708951950073242 8.276679992675781 
v 0.5016277432441711 8.70434856414795 8.569402694702148 
v 0.5016277432441711 8.70434856414795 8.276679992675781 
v 0.46198660135269165 8.685935020446777 8.569402694702148 
v 0.46198660135269165 8.685935020446777 8.276679992675781 
v 0.42895230650901794 8.656011581420898 8.569402694702148 
v 0.42895230650901794 8.656011581420898 8.276679992675781 
v 0.40252485871315 8.614580154418945 8.569402694702148 
v 0.40252485871315 8.614580154418945 8.276679992675781 
v 0.39591801166534424 8.570847511291504 8.569402694702148 
v 0.39591801166534424 8.570847511291504 8.276679992675781 
v 0.40252485871315 8.524812698364258 8.569402694702148 
v 0.40252485871315 8.524812698364258 8.276679992675781 
v 0.42234542965888977 8.483380317687988 8.569402694702148 
v 0.42234542965888977 8.483380317687988 8.276679992675781 
v 0.4487728774547577 8.448854446411133 8.569402694702148 
v 0.4487728774547577 8.448854446411133 8.276679992675781 
v 0.48841404914855957 8.425836563110352 8.569402694702148 
v 0.48841404914855957 8.425836563110352 8.276679992675781 
v 0.5346620678901672 8.416629791259766 8.569402694702148 
v 0.5346620678901672 8.416629791259766 8.276679992675781 
v 0.5809100866317749 8.421233177185059 8.569402694702148 
v 0.5809100866317749 8.421233177185059 8.276679992675781 
v 0.9773216843605042 8.656011581420898 8.276679992675781 
v 1.0103559494018555 8.685935020446777 8.276679992675781 
v 1.089638352394104 8.563941955566406 8.276679992675781 
v 1.049997091293335 8.70434856414795 8.276679992675781 
v 1.0962451696395874 8.708951950073242 8.276679992675781 
v 1.1424931287765503 8.699745178222656 8.276679992675781 
v 1.1821343898773193 8.676727294921875 8.276679992675781 
v 1.2085617780685425 8.64220142364502 8.276679992675781 
v 1.2283823490142822 8.600769996643066 8.276679992675781 
v 1.2349891662597656 8.55473518371582 8.276679992675781 
v 1.2283823490142822 8.511001586914062 8.276679992675781 
v 1.201954960823059 8.46957015991211 8.276679992675781 
v 1.168920636177063 8.439647674560547 8.276679992675781 
v 1.1292794942855835 8.421233177185059 8.276679992675781 
v 1.083031415939331 8.416629791259766 8.276679992675781 
v 1.0367834568023682 8.425836563110352 8.276679992675781 
v 0.9971422553062439 8.448854446411133 8.276679992675781 
v 0.9641079306602478 8.483380317687988 8.276679992675781 
v 0.9442873597145081 8.524812698364258 8.276679992675781 
v 0.9442873597145081 8.570847511291504 8.276679992675781 
v 0.9508942365646362 8.614580154418945 8.276679992675781 
vn 2.0682311115474694e-13 4.2775797696334704e-26 -1 
vn -2.0682311115474694e-13 0 -1 
vn 2.0682311115474694e-13 4.2775797696334704e-26 -1 
vn -2.0682311115474694e-13 0 -1 
vn 2.0682311115474694e-13 4.2775797696334704e-26 -1 
vn -2.0682311115474694e-13 0 -1 
vn 2.0682311115474694e-13 4.2775797696334704e-26 -1 
vn 2.0682311115474694e-13 4.2775797696334704e-26 -1 
vn -2.0682311115474694e-13 0 -1 
vn -2.0682311115474694e-13 0 -1 
vn -2.0682311115474694e-13 0 -1 
vn -2.0682311115474694e-13 0 -1 
vn 2.0682311115474694e-13 4.2775797696334704e-26 -1 
vn 2.0682311115474694e-13 4.2775797696334704e-26 -1 
vn -2.0682311115474694e-13 0 -1 
vn -2.0682311115474694e-13 0 -1 
vn -2.0682311115474694e-13 0 -1 
vn -2.0682311115474694e-13 0 -1 
vn -2.0682311115474694e-13 0 -1 
vn -2.0682311115474694e-13 0 -1 
vn 2.0682311115474694e-13 4.2775797696334704e-26 -1 
vn 0.777777373790741 -0.6285360455513 0.002184694167226553 
vn 0.777777373790741 -0.6285360455513 0.002184694167226553 
vn 0.5429477095603943 -0.8397637009620667 0.002184694167226553 
vn 0.5429477095603943 -0.8397637009620667 0.002184694167226553 
vn 0.2612491250038147 -0.9652689099311829 0.002184694167226553 
vn 0.2612491250038147 -0.9652689099311829 0.002184694167226553 
vn -0.05283859372138977 -0.9986006617546082 0.002184694167226553 
vn -0.05283859372138977 -0.9986006617546082 0.002184694167226553 
vn -0.36165499687194824 -0.9323094487190247 0.002184694167226553 
vn -0.36165499687194824 -0.9323094487190247 0.002184694167226553 
vn -0.6285360455513 -0.777777373790741 0.002184694167226553 
vn -0.6285360455513 -0.777777373790741 0.002184694167226553 
vn -0.8397637009620667 -0.5429477095603943 0.002184694167226553 
vn -0.8397637009620667 -0.5429477095603943 0.002184694167226553 
vn -0.9652689099311829 -0.2612491250038147 0.002184694167226553 
vn -0.9652689099311829 -0.2612491250038147 0.002184694167226553 
vn -0.9986006617546082 0.05283859372138977 0.002184694167226553 
vn -0.9986006617546082 0.05283859372138977 0.002184694167226553 
vn -0.9323094487190247 0.36165499687194824 0.002184694167226553 
vn -0.9323094487190247 0.36165499687194824 0.002184694167226553 
vn -0.777777373790741 0.6285360455513 0.002184694167226553 
vn -0.777777373790741 0.6285360455513 0.002184694167226553 
vn -0.5429477095603943 0.8397637009620667 0.002184694167226553 
vn -0.5429477095603943 0.8397637009620667 0.002184694167226553 
vn -0.2612491250038147 0.9652689099311829 0.002184694167226553 
vn -0.2612491250038147 0.9652689099311829 0.002184694167226553 
vn 0.05283859372138977 0.9986006617546082 0.002184694167226553 
vn 0.05283859372138977 0.9986006617546082 0.002184694167226553 
vn 0.36165499687194824 0.9323094487190247 0.002184694167226553 
vn 0.36165499687194824 0.9323094487190247 0.002184694167226553 
vn 0.6285360455513 0.777777373790741 0.002184694167226553 
vn 0.6285360455513 0.777777373790741 0.002184694167226553 
vn 0.8397637009620667 0.5429477095603943 0.002184694167226553 
vn 0.8397637009620667 0.5429477095603943 0.002184694167226553 
vn 0.9652689099311829 0.2612491250038147 0.002184694167226553 
vn 0.9652689099311829 0.2612491250038147 0.002184694167226553 
vn 0.9986006617546082 -0.05283859372138977 0.002184694167226553 
vn 0.9986006617546082 -0.05283859372138977 0.002184694167226553 
vn 0.9323094487190247 -0.36165499687194824 0.002184694167226553 
vn 0.9323094487190247 -0.36165499687194824 0.002184694167226553 
vn 0.5429477095603943 -0.8397637009620667 -0.002184694167226553 
vn 0.5429477095603943 -0.8397637009620667 -0.002184694167226553 
vn 0.777777373790741 -0.6285360455513 0.002184694167226553 
vn 0.777777373790741 -0.6285360455513 0.002184694167226553 
vn 0.9323094487190247 -0.36165499687194824 0.002184694167226553 
vn 0.9323094487190247 -0.36165499687194824 0.002184694167226553 
vn 0.9986006617546082 -0.05283859372138977 0.002184694167226553 
vn 0.9986006617546082 -0.05283859372138977 0.002184694167226553 
vn 0.9652689099311829 0.2612491250038147 0.002184694167226553 
vn 0.9652689099311829 0.2612491250038147 0.002184694167226553 
vn 0.8397637009620667 0.5429477095603943 0.002184694167226553 
vn 0.8397637009620667 0.5429477095603943 0.002184694167226553 
vn 0.6285360455513 0.777777373790741 0.002184694167226553 
vn 0.6285360455513 0.777777373790741 0.002184694167226553 
vn 0.36165499687194824 0.9323094487190247 0.002184694167226553 
vn 0.36165499687194824 0.9323094487190247 0.002184694167226553 
vn 0.05283859372138977 0.9986006617546082 0.002184694167226553 
vn 0.05283859372138977 0.9986006617546082 0.002184694167226553 
vn -0.2612491250038147 0.9652689099311829 0.002184694167226553 
vn -0.2612491250038147 0.9652689099311829 0.002184694167226553 
vn -0.5429477095603943 0.8397637009620667 0.002184694167226553 
vn -0.5429477095603943 0.8397637009620667 0.002184694167226553 
vn -0.777777373790741 0.6285360455513 -0.002184694167226553 
vn -0.777777373790741 0.6285360455513 -0.002184694167226553 
vn -0.9323094487190247 0.36165499687194824 -0.002184694167226553 
vn -0.9323094487190247 0.36165499687194824 -0.002184694167226553 
vn -0.9986006617546082 0.05283859372138977 0.002184694167226553 
vn -0.9986006617546082 0.05283859372138977 0.002184694167226553 
vn -0.9652689099311829 -0.2612491250038147 0.002184694167226553 
vn -0.9652689099311829 -0.2612491250038147 0.002184694167226553 
vn -0.8397637009620667 -0.5429477095603943 0.002184694167226553 
vn -0.8397637009620667 -0.5429477095603943 0.002184694167226553 
vn -0.6285360455513 -0.777777373790741 0.002184694167226553 
vn -0.6285360455513 -0.777777373790741 0.002184694167226553 
vn -0.36165499687194824 -0.9323094487190247 0.002184694167226553 
vn -0.36165499687194824 -0.9323094487190247 0.002184694167226553 
vn -0.05283859372138977 -0.9986006617546082 0.002184694167226553 
vn -0.05283859372138977 -0.9986006617546082 0.002184694167226553 
vn 0.2612491250038147 -0.9652689099311829 -0.002184694167226553 
vn 0.2612491250038147 -0.9652689099311829 -0.002184694167226553 
vn -2.0682311115474694e-13 0 -1 
vn -2.0682311115474694e-13 0 -1 
vn -2.0682311115474694e-13 0 -1 
vn -2.0682311115474694e-13 0 -1 
vn -2.0682311115474694e-13 0 -1 
vn 2.0682311115474694e-13 4.2775797696334704e-26 -1 
vn 2.0682311115474694e-13 4.2775797696334704e-26 -1 
vn -2.0682311115474694e-13 0 -1 
vn -2.0682311115474694e-13 0 -1 
vn -2.0682311115474694e-13 0 -1 
vn -2.0682311115474694e-13 0 -1 
vn -2.0682311115474694e-13 0 -1 
vn -2.0682311115474694e-13 0 -1 
vn 2.0682311115474694e-13 4.2775797696334704e-26 -1 
vn 2.0682311115474694e-13 4.2775797696334704e-26 -1 
vn -2.0682311115474694e-13 0 -1 
vn -2.0682311115474694e-13 0 -1 
vn 2.0682311115474694e-13 4.2775797696334704e-26 -1 
vn -2.0682311115474694e-13 0 -1 
vn 2.0682311115474694e-13 4.2775797696334704e-26 -1 
vn 2.0682311115474694e-13 4.2775797696334704e-26 -1 
vt 0.7220789790153503 0.448784738779068 
vt 0.7211653590202332 0.44695743918418884 
vt 0.715988039970398 0.4508150815963745 
vt 0.719744086265564 0.44553619623184204 
vt 0.7179168462753296 0.44462254643440247 
vt 0.715988039970398 0.4443179965019226 
vt 0.7139577269554138 0.44462254643440247 
vt 0.7121304273605347 0.44553619623184204 
vt 0.7107092142105103 0.44695743918418884 
vt 0.7097955346107483 0.448784738779068 
vt 0.7094910144805908 0.4508150815963745 
vt 0.7097955346107483 0.45274391770362854 
vt 0.7107092142105103 0.4545712172985077 
vt 0.7121304273605347 0.4559924602508545 
vt 0.7139577269554138 0.45690611004829407 
vt 0.715988039970398 0.4572106599807739 
vt 0.7179168462753296 0.45690611004829407 
vt 0.719744086265564 0.4559924602508545 
vt 0.7211653590202332 0.4545712172985077 
vt 0.7220789790153503 0.45274391770362854 
vt 0.7223835587501526 0.4508150815963745 
vt 0.7211653590202332 0.4545712172985077 
vt 0.7211653590202332 0.4545712172985077 
vt 0.7220789790153503 0.45274391770362854 
vt 0.7220789790153503 0.45274391770362854 
vt 0.7223835587501526 0.4508150815963745 
vt 0.7223835587501526 0.4508150815963745 
vt 0.7220789790153503 0.448784738779068 
vt 0.7220789790153503 0.448784738779068 
vt 0.7211653590202332 0.44695743918418884 
vt 0.7211653590202332 0.44695743918418884 
vt 0.719744086265564 0.44553619623184204 
vt 0.719744086265564 0.44553619623184204 
vt 0.7179168462753296 0.44462254643440247 
vt 0.7179168462753296 0.44462254643440247 
vt 0.715988039970398 0.4443179965019226 
vt 0.715988039970398 0.4443179965019226 
vt 0.7139577269554138 0.44462254643440247 
vt 0.7139577269554138 0.44462254643440247 
vt 0.7121304273605347 0.44553619623184204 
vt 0.7121304273605347 0.44553619623184204 
vt 0.7107092142105103 0.44695743918418884 
vt 0.7107092142105103 0.44695743918418884 
vt 0.7097955346107483 0.448784738779068 
vt 0.7097955346107483 0.448784738779068 
vt 0.7094910144805908 0.4508150815963745 
vt 0.7094910144805908 0.4508150815963745 
vt 0.7097955346107483 0.45274391770362854 
vt 0.7097955346107483 0.45274391770362854 
vt 0.7107092142105103 0.4545712172985077 
vt 0.7107092142105103 0.4545712172985077 
vt 0.7121304273605347 0.4559924602508545 
vt 0.7121304273605347 0.4559924602508545 
vt 0.7139577269554138 0.45690611004829407 
vt 0.7139577269554138 0.45690611004829407 
vt 0.715988039970398 0.4572106599807739 
vt 0.715988039970398 0.4572106599807739 
vt 0.7179168462753296 0.45690611004829407 
vt 0.7179168462753296 0.45690611004829407 
vt 0.719744086265564 0.4559924602508545 
vt 0.719744086265564 0.4559924602508545 
vt 0.7220789790153503 0.45274391770362854 
vt 0.7220789790153503 0.45274391770362854 
vt 0.7211653590202332 0.4545712172985077 
vt 0.7211653590202332 0.4545712172985077 
vt 0.719744086265564 0.4559924602508545 
vt 0.719744086265564 0.4559924602508545 
vt 0.7179168462753296 0.45690611004829407 
vt 0.7179168462753296 0.45690611004829407 
vt 0.715988039970398 0.4572106599807739 
vt 0.715988039970398 0.4572106599807739 
vt 0.7139577269554138 0.45690611004829407 
vt 0.7139577269554138 0.45690611004829407 
vt 0.7121304273605347 0.4559924602508545 
vt 0.7121304273605347 0.4559924602508545 
vt 0.7107092142105103 0.4545712172985077 
vt 0.7107092142105103 0.4545712172985077 
vt 0.7097955346107483 0.45274391770362854 
vt 0.7097955346107483 0.45274391770362854 
vt 0.7094910144805908 0.4508150815963745 
vt 0.7094910144805908 0.4508150815963745 
vt 0.7097955346107483 0.448784738779068 
vt 0.7097955346107483 0.448784738779068 
vt 0.7107092142105103 0.44695743918418884 
vt 0.7107092142105103 0.44695743918418884 
vt 0.7121304273605347 0.44553619623184204 
vt 0.7121304273605347 0.44553619623184204 
vt 0.7139577269554138 0.44462254643440247 
vt 0.7139577269554138 0.44462254643440247 
vt 0.715988039970398 0.4443179965019226 
vt 0.715988039970398 0.4443179965019226 
vt 0.7179168462753296 0.44462254643440247 
vt 0.7179168462753296 0.44462254643440247 
vt 0.719744086265564 0.44553619623184204 
vt 0.719744086265564 0.44553619623184204 
vt 0.7211653590202332 0.44695743918418884 
vt 0.7211653590202332 0.44695743918418884 
vt 0.7220789790153503 0.448784738779068 
vt 0.7220789790153503 0.448784738779068 
vt 0.7223835587501526 0.4508150815963745 
vt 0.7223835587501526 0.4508150815963745 
vt 0.7107092142105103 0.44695743918418884 
vt 0.7097955346107483 0.448784738779068 
vt 0.715988039970398 0.4508150815963745 
vt 0.7094910144805908 0.4508150815963745 
vt 0.7097955346107483 0.45274391770362854 
vt 0.7107092142105103 0.4545712172985077 
vt 0.7121304273605347 0.4559924602508545 
vt 0.7139577269554138 0.45690611004829407 
vt 0.715988039970398 0.4572106599807739 
vt 0.7179168462753296 0.45690611004829407 
vt 0.719744086265564 0.4559924602508545 
vt 0.7211653590202332 0.4545712172985077 
vt 0.7220789790153503 0.45274391770362854 
vt 0.7223835587501526 0.4508150815963745 
vt 0.7220789790153503 0.448784738779068 
vt 0.7211653590202332 0.44695743918418884 
vt 0.719744086265564 0.44553619623184204 
vt 0.7179168462753296 0.44462254643440247 
vt 0.715988039970398 0.4443179965019226 
vt 0.7139577269554138 0.44462254643440247 
vt 0.7121304273605347 0.44553619623184204 
s on 
f 1/1/1 2/2/2 3/3/3 
f 2/2/2 4/4/4 3/3/3 
f 3/3/3 4/4/4 5/5/5 
f 4/4/4 5/5/5 5/5/5 
f 5/5/5 5/5/5 5/5/5 
f 5/5/5 6/6/6 5/5/5 
f 5/5/5 6/6/6 3/3/3 
f 6/6/6 7/7/7 3/3/3 
f 3/3/3 7/7/7 8/8/8 
f 7/7/7 8/8/8 8/8/8 
f 8/8/8 8/8/8 8/8/8 
f 8/8/8 9/9/9 8/8/8 
f 8/8/8 9/9/9 3/3/3 
f 9/9/9 10/10/10 3/3/3 
f 3/3/3 10/10/10 11/11/11 
f 10/10/10 11/11/11 11/11/11 
f 11/11/11 11/11/11 11/11/11 
f 11/11/11 12/12/12 11/11/11 
f 11/11/11 12/12/12 3/3/3 
f 12/12/12 13/13/13 3/3/3 
f 3/3/3 13/13/13 14/14/14 
f 13/13/13 14/14/14 14/14/14 
f 14/14/14 14/14/14 14/14/14 
f 14/14/14 15/15/15 14/14/14 
f 14/14/14 15/15/15 3/3/3 
f 15/15/15 16/16/16 3/3/3 
f 3/3/3 16/16/16 17/17/17 
f 16/16/16 17/17/17 17/17/17 
f 17/17/17 17/17/17 17/17/17 
f 17/17/17 18/18/18 17/17/17 
f 17/17/17 18/18/18 3/3/3 
f 18/18/18 19/19/19 3/3/3 
f 3/3/3 19/19/19 20/20/20 
f 19/19/19 20/20/20 20/20/20 
f 20/20/20 20/20/20 20/20/20 
f 20/20/20 21/21/21 20/20/20 
f 20/20/20 21/21/21 3/3/3 
f 21/21/21 1/1/1 3/3/3 
f 3/3/3 1/1/1 1/1/1 
f 1/1/1 22/22/22 1/1/1 
f 1/1/1 22/22/22 22/22/22 
f 22/22/22 23/23/23 22/22/22 
f 22/22/22 23/23/23 24/24/24 
f 23/23/23 25/25/25 24/24/24 
f 24/24/24 25/25/25 26/26/26 
f 25/25/25 27/27/27 26/26/26 
f 26/26/26 27/27/27 28/28/28 
f 27/27/27 29/29/29 28/28/28 
f 28/28/28 29/29/29 30/30/30 
f 29/29/29 31/31/31 30/30/30 
f 30/30/30 31/31/31 32/32/32 
f 31/31/31 33/33/33 32/32/32 
f 32/32/32 33/33/33 34/34/34 
f 33/33/33 35/35/35 34/34/34 
f 34/34/34 35/35/35 36/36/36 
f 35/35/35 37/37/37 36/36/36 
f 36/36/36 37/37/37 38/38/38 
f 37/37/37 39/39/39 38/38/38 
f 38/38/38 39/39/39 40/40/40 
f 39/39/39 41/41/41 40/40/40 
f 40/40/40 41/41/41 42/42/42 
f 41/41/41 43/43/43 42/42/42 
f 42/42/42 43/43/43 44/44/44 
f 43/43/43 45/45/45 44/44/44 
f 44/44/44 45/45/45 46/46/46 
f 45/45/45 47/47/47 46/46/46 
f 46/46/46 47/47/47 48/48/48 
f 47/47/47 49/49/49 48/48/48 
f 48/48/48 49/49/49 50/50/50 
f 49/49/49 51/51/51 50/50/50 
f 50/50/50 51/51/51 52/52/52 
f 51/51/51 53/53/53 52/52/52 
f 52/52/52 53/53/53 54/54/54 
f 53/53/53 55/55/55 54/54/54 
f 54/54/54 55/55/55 56/56/56 
f 55/55/55 57/57/57 56/56/56 
f 56/56/56 57/57/57 58/58/58 
f 57/57/57 59/59/59 58/58/58 
f 58/58/58 59/59/59 60/60/60 
f 59/59/59 61/61/61 60/60/60 
f 60/60/60 61/61/61 22/22/22 
f 61/61/61 23/23/23 22/22/22 
f 22/22/22 23/23/23 23/23/23 
f 23/23/23 62/62/62 23/23/23 
f 23/23/23 62/62/62 62/62/62 
f 62/62/62 63/63/63 62/62/62 
f 62/62/62 63/63/63 64/64/64 
f 63/63/63 65/65/65 64/64/64 
f 64/64/64 65/65/65 66/66/66 
f 65/65/65 67/67/67 66/66/66 
f 66/66/66 67/67/67 68/68/68 
f 67/67/67 69/69/69 68/68/68 
f 68/68/68 69/69/69 70/70/70 
f 69/69/69 71/71/71 70/70/70 
f 70/70/70 71/71/71 72/72/72 
f 71/71/71 73/73/73 72/72/72 
f 72/72/72 73/73/73 74/74/74 
f 73/73/73 75/75/75 74/74/74 
f 74/74/74 75/75/75 76/76/76 
f 75/75/75 77/77/77 76/76/76 
f 76/76/76 77/77/77 78/78/78 
f 77/77/77 79/79/79 78/78/78 
f 78/78/78 79/79/79 80/80/80 
f 79/79/79 81/81/81 80/80/80 
f 80/80/80 81/81/81 82/82/82 
f 81/81/81 83/83/83 82/82/82 
f 82/82/82 83/83/83 84/84/84 
f 83/83/83 85/85/85 84/84/84 
f 84/84/84 85/85/85 86/86/86 
f 85/85/85 87/87/87 86/86/86 
f 86/86/86 87/87/87 88/88/88 
f 87/87/87 89/89/89 88/88/88 
f 88/88/88 89/89/89 90/90/90 
f 89/89/89 91/91/91 90/90/90 
f 90/90/90 91/91/91 92/92/92 
f 91/91/91 93/93/93 92/92/92 
f 92/92/92 93/93/93 94/94/94 
f 93/93/93 95/95/95 94/94/94 
f 94/94/94 95/95/95 96/96/96 
f 95/95/95 97/97/97 96/96/96 
f 96/96/96 97/97/97 98/98/98 
f 97/97/97 99/99/99 98/98/98 
f 98/98/98 99/99/99 100/100/100 
f 99/99/99 101/101/101 100/100/100 
f 100/100/100 101/101/101 62/62/62 
f 101/101/101 63/63/63 62/62/62 
f 62/62/62 63/63/63 63/63/63 
f 63/63/63 102/102/102 63/63/63 
f 63/63/63 102/102/102 102/102/102 
f 102/102/102 103/103/103 102/102/102 
f 102/102/102 103/103/103 104/104/104 
f 103/103/103 105/105/105 104/104/104 
f 104/104/104 105/105/105 106/106/106 
f 105/105/105 106/106/106 106/106/106 
f 106/106/106 106/106/106 106/106/106 
f 106/106/106 107/107/107 106/106/106 
f 106/106/106 107/107/107 104/104/104 
f 107/107/107 108/108/108 104/104/104 
f 104/104/104 108/108/108 109/109/109 
f 108/108/108 109/109/109 109/109/109 
f 109/109/109 109/109/109 109/109/109 
f 109/109/109 110/110/110 109/109/109 
f 109/109/109 110/110/110 104/104/104 
f 110/110/110 111/111/111 104/104/104 
f 104/104/104 111/111/111 112/112/112 
f 111/111/111 112/112/112 112/112/112 
f 112/112/112 112/112/112 112/112/112 
f 112/112/112 113/113/113 112/112/112 
f 112/112/112 113/113/113 104/104/104 
f 113/113/113 114/114/114 104/104/104 
f 104/104/104 114/114/114 115/115/115 
f 114/114/114 115/115/115 115/115/115 
f 115/115/115 115/115/115 115/115/115 
f 115/115/115 116/116/116 115/115/115 
f 115/115/115 116/116/116 104/104/104 
f 116/116/116 117/117/117 104/104/104 
f 104/104/104 117/117/117 118/118/118 
f 117/117/117 118/118/118 118/118/118 
f 118/118/118 118/118/118 118/118/118 
f 118/118/118 119/119/119 118/118/118 
f 118/118/118 119/119/119 104/104/104 
f 119/119/119 120/120/120 104/104/104 
f 104/104/104 120/120/120 121/121/121 
f 120/120/120 121/121/121 121/121/121 
f 121/121/121 121/121/121 121/121/121 
f 121/121/121 122/122/122 121/121/121 
f 121/121/121 122/122/122 104/104/104 
f 122/122/122 102/102/102 104/104/104 

